<?xml version="1.0" encoding="UTF-8" standalone="no" ?>
<!DOCTYPE svg PUBLIC "-//W3C//DTD SVG 1.1//EN" "http://www.w3.org/Graphics/SVG/1.1/DTD/svg11.dtd">
<svg xmlns="http://www.w3.org/2000/svg" xmlns:xlink="http://www.w3.org/1999/xlink" version="1.1" width="1280" height="1024" viewBox="0 0 1280 1024" xml:space="preserve">
<desc>Created with Fabric.js 4.4.0</desc>
<defs>
</defs>
<g transform="matrix(1 0 0 1 640 512)" id="background-logo"  >
<rect style="stroke: none; stroke-width: 0; stroke-dasharray: none; stroke-linecap: butt; stroke-dashoffset: 0; stroke-linejoin: miter; stroke-miterlimit: 4; fill: rgb(255,255,255); fill-opacity: 0; fill-rule: nonzero; opacity: 1;"  paint-order="stroke"  x="-640" y="-512" rx="0" ry="0" width="1280" height="1024" />
</g>
<g transform="matrix(2.4817733471990615 0 0 2.4817733471990615 640 512)" id="logo-logo"  >
<g style=""  paint-order="stroke"   >
		<g transform="matrix(1.0457585285304705 0 0 1.0457585285304705 -1.6390079822270422 -89.51404825555295)"  >
<path style="stroke: none; stroke-width: 1; stroke-dasharray: none; stroke-linecap: butt; stroke-dashoffset: 0; stroke-linejoin: miter; stroke-miterlimit: 4; fill: rgb(68,228,152); fill-rule: nonzero; opacity: 1;"  paint-order="stroke"  transform=" translate(-515.86911035, -422.5809935903211)" d="M 494.4325867 479.0907593 C 495.78079230000003 480.1693115 501.4432679 483.135376 501.4432679 483.135376 L 501.4432679 487.9889221 L 455.58718880000004 487.9889221 L 488.03405770000006 470.1314697 L 489.8486634000001 475.04611200000005 C 489.8486633 475.0461121 493.0843506 478.0121765 494.4325867 479.0907593 z M 420.6446228 487.9889221 C 422.6219177 486.73321530000004 424.695343 485.4799194 426.88491819999996 484.24459840000003 C 434.46871949999996 479.96578980000004 441.60574339999994 476.87323000000004 447.81152339999994 474.6159058 C 439.71197509999996 479.07357790000003 431.61245719999994 483.5312195 423.5128783999999 487.9889222 L 452.67379759999994 487.9889222 C 455.41241449999995 486.41983039999997 458.19839479999996 484.8530885 461.0448607999999 483.292389 C 470.26336669999995 478.2379151 479.21990959999994 473.699524 487.8418578999999 469.6109925 L 486.6129760999999 466.2827454 L 482.2986755999999 462.1032715 L 467.7380066999999 466.2827454 L 465.8505249999999 462.3729248 L 457.7612610999999 458.5979309 L 445.3577271999999 458.8675842 L 443.7203980999999 457.5372314 L 409.5627442999999 476.3362426 C 419.5785828999999 469.7850341 430.5564576999999 463.1125488 442.4823914999999 456.5314025 L 441.04345719999986 455.3622436 L 438.88629169999984 448.8908081 L 431.8756410999998 446.7337036 L 422.1684877999998 451.3175964 C 422.1684877999998 451.3175964 412.4614565999998 447.2729797 412.46136499999983 447.2729797 C 411.3912660999998 447.7044067 410.17791769999985 448.99063110000003 409.63012719999983 452.8006286 C 409.12719749999985 454.9951476 408.62432889999985 457.1896362 408.1213991999998 459.3841552 C 411.2113344999998 458.0167846 414.1676943999998 456.8345641 416.93109159999983 455.8293761 C 413.88143949999983 457.5078124 410.8317873999998 459.1861876 407.7821352999998 460.8645934 C 407.6566164999998 461.4122924 407.5310671999998 461.9600219 407.4055788999998 462.5077208 C 405.92254669999977 466.1479186 404.4395449999998 469.78808580000003 402.9564821999998 473.4282835 C 403.4283754999998 475.76513650000004 403.9002687999998 478.10205060000004 404.37210109999984 480.43896470000004 L 400.32748439999983 487.98892200000006 L 420.6446228 487.98892200000006 z M 384.7556763 446.7337036 L 388.5306397 446.7337036 L 397.6984559 443.4979553 L 402.8216554 430.0158691 L 406.463379 425.93716429999995 C 401.4115602 428.71749879999993 396.3596803 431.49783319999995 391.3078309 434.2781676999999 C 395.9631043 430.68447869999994 401.5342103 426.85165399999994 408.0503541 423.17526239999995 C 408.5544129 422.89083859999994 409.0509645 422.6252441 409.550995 422.35122679999995 L 407.8074037 405.29983519999996 L 388.5306398 424.3533935 L 374.23962420000004 455.0925598 L 380.71102920000004 453.7443848 L 384.7556763 446.7337036 z M 654.2629395 484.2813416 L 652.3754273000001 480.9108277 L 644.9602662000001 480.64120490000005 C 644.9602662000001 480.64120490000005 643.5682984000001 476.64312750000005 642.0753785 472.29745490000005 C 637.1912232000001 474.98550420000004 632.3070680000001 477.67349250000007 627.4229737000001 480.3615113000001 C 631.4425049 477.2586060000001 636.1485596000001 473.9777528000001 641.5524293000001 470.7728577000001 C 640.0274659 466.3198548000001 638.5531617 461.9465943000001 638.4888307000001 461.4966126000001 C 638.3540040000001 460.55285650000013 640.1066896000001 454.4859009000001 640.1066896000001 454.4859009000001 L 637.4201662 451.3850403000001 L 633.5004885000001 444.6439514000001 C 633.5004885000001 444.6439514000001 632.6915285000001 446.6662903000001 632.1522219000001 447.2055664000001 C 631.6129763000001 447.7448730000001 628.9165652 458.39569090000015 628.9165652 458.39569090000015 L 628.9165652 466.61978150000016 L 627.0290530000001 471.20370480000014 L 621.5014041000001 476.05728150000016 C 622.1013797 477.5203247000002 622.9309085000001 480.07531740000013 622.8833011 483.33761600000014 C 622.839783 486.31729130000014 622.0823978000001 488.66238410000017 621.5014041000001 490.0786438000001 C 633.5004886 490.0786438000001 645.4995120000001 490.0786438000001 657.4985965000001 490.0786438000001 L 656.0155643 488.0563355000001 L 654.2629395 484.2813416 z M 606.5362549 440.3296509 L 614.2210694 447.6100159 L 614.2210694 458.9349671 L 609.9741822000001 461.9684449 L 609.2200928000001 461.0196839 C 610.0617676 460.55645760000004 610.9035034000001 460.09317020000003 611.7452393000001 459.6299134 C 610.8357544 459.9607545 609.9006348000001 460.3154908 608.9526978000001 460.6832886 L 603.7050171000001 454.08139040000003 L 592.7845459000001 451.04794310000005 L 585.0997314000001 447.4078064 L 579.0482177000001 444.0601502 C 584.9728393000001 440.799469 590.8973998000001 437.5388489 596.8220214000002 434.2781678 C 591.0129394000002 436.3912049 584.3822631000002 439.2496949 577.3385619000002 443.11438 L 575.5948485000001 442.1497804 L 572.9658202000002 438.3073732 L 567.5055541000002 439.9252016 L 563.0565185000002 447.812256 L 551.1248168000002 445.99218759999997 L 551.1248168000002 439.92520149999996 L 547.2824096000002 436.08279429999993 C 547.2824096000002 436.08279429999993 543.3356933000001 435.21447759999995 540.2750243000002 434.7601624999999 C 546.8451537000002 431.14422619999993 553.4152831000001 427.52832049999995 559.9853514000001 423.91241469999994 C 553.7796019000001 426.16970839999993 546.6425780000001 429.2622986999999 539.0587767000002 433.54104629999995 C 538.4982909000001 433.85723889999997 537.9543455000002 434.17590349999995 537.4078978000002 434.49417129999995 C 537.0530394000002 434.50628679999994 536.8205565000002 434.5588379999999 536.7663573000002 434.6671754999999 C 536.3619384000002 435.47613549999994 529.2838134000002 438.1051332999999 529.2838134000002 438.1051332999999 L 520.7901000000002 439.7229921999999 L 520.1834105000002 446.5988466999999 L 523.4191283000001 454.0813905999999 L 520.3856810000001 456.7104188999999 L 512.7008665000001 464.39523339999994 L 510.88076760000007 460.5528261999999 L 501.78033430000005 454.5532839999999 L 497.19641100000007 449.6997683999999 L 490.9946593000001 446.7337038999999 L 483.94534290000007 446.7337038999999 L 532.5629271 419.9765627999999 C 521.7250365 424.9077761999999 510.28646840000005 430.5682070999999 498.4214781 437.0738222999999 C 492.5768736 440.2784120999999 486.9682005 443.5066530999999 481.5780028 446.7337038999999 L 481.01788319999997 446.7337038999999 L 471.42221059999997 442.29122949999993 L 477.8328246 438.7631227999999 C 475.5273742 439.8120729999999 473.1891478 440.9014284999999 470.8310241 442.0175172999999 L 466.4572143 439.9926149999999 L 465.10897819999997 431.3640443999999 L 461.787445 429.0389711999999 C 467.5684509 425.75814839999987 473.34936519999997 422.4772951999999 479.1304015 419.1964723999999 C 475.6036681 420.4257203999999 471.7168883 422.02484149999987 467.6279296 424.1231996999999 C 465.0841979 425.4285280999999 462.7285155 426.79257229999985 460.54986560000003 428.17266869999986 L 459.7161864 427.5890810999999 L 449.20013420000004 435.40869169999985 L 445.9939269 433.25155669999987 L 439.22335810000004 439.9926149999999 L 428.97695920000007 435.4086916999999 L 431.1067199000001 426.0910341999999 C 441.08822620000007 420.59762599999993 451.06973260000007 415.1042177999999 461.0512389000001 409.6108095999999 C 454.8454894000001 411.8681032999999 447.7084655000001 414.9606935999999 440.1246337000001 419.23944119999993 C 436.94226070000013 421.03491239999994 433.98901360000013 422.8675844999999 431.25408930000015 424.69162019999993 L 431.9430236000002 417.34271269999994 L 428.97695910000016 412.75878939999996 L 434.63943470000015 404.66952549999996 L 434.8794249000002 402.7496647 L 481.8092955000002 376.9213871 C 470.9714049000002 381.8526005 459.5328368000002 387.5130314 447.66784650000017 394.0186466 C 443.3442686000002 396.38931310000004 439.1530455000002 398.77307160000004 435.07821640000014 401.1595463 L 435.98767070000014 393.88382 L 443.53765850000013 387.4124455 L 445.9939268000001 381.7499699 L 445.9939268000001 372.6378788 C 454.8662718000001 368.0355534 486.1065672000001 352.9001469 527.2313230000001 355.34964030000003 C 525.6598508000001 356.1573796 524.0687253000001 357.0047306 522.4519651 357.9168705 C 515.9358518 361.5932621 510.36474590000006 365.4261173 505.70947240000004 369.0197758 C 513.8652341000001 364.5311589 522.0211179 360.0425419 530.1768796 355.5538945 C 538.3703 356.2041936 546.9335935 357.5588078 555.7761228 359.84152270000004 C 557.4576414 360.27560470000003 559.1046140000001 360.74081470000004 560.7339475 361.22122240000004 C 554.3577878 364.36770680000006 547.8217161 367.75210620000007 541.1444089 371.41326950000007 C 528.7463376000001 378.21115160000005 517.3717038 385.11544850000007 507.01574680000004 391.88913010000005 L 562.024719 361.61441090000005 C 571.9701536 364.6441045 580.9333494 368.49044850000007 588.9224851 372.7408452000001 C 577.4544675 379.1089482000001 566.8688962 385.55563400000005 557.1857908000001 391.8891301000001 L 590.4651487000001 373.5735173000001 C 605.6112669000001 381.8560185000001 617.1646116000001 391.4961247000001 625.2504881000001 399.4526372000001 C 620.9381712 401.65689140000006 616.5570677000001 403.9732671000001 612.1161497 406.4082341000001 C 599.7180174 413.20611620000005 588.3434446 420.1104131000001 577.9874266 426.88409470000005 L 626.1719969000001 400.36523480000005 C 630.7257078000001 404.92044110000006 634.1123656000001 408.86529580000007 636.3415526000001 411.58783000000005 L 633.0285643000001 415.05075110000007 L 631.8151854000001 421.9266056000001 L 622.7147826000001 426.5779118000001 L 609.9741820000002 427.9935307000001 L 608.9630126000002 434.4649662000001 L 606.7385253000002 436.8917545000001 L 606.5362549 440.3296509 z M 543.3786011 389.3109741 C 537.1728516 391.56829830000004 530.0358276999999 394.6608581 522.4519654 398.93966670000003 C 515.9358520999999 402.6160583 510.36474619999996 406.448883 505.70947269999994 410.042572 C 518.2658691 403.132019 530.8222046 396.2214966 543.3786011 389.3109741 z M 593.1889648 479.4277954 L 586.1109008 474.7764587 L 585.2783813 474.19622799999996 C 581.5443114999999 476.25134269999995 577.8102417 478.30639649999995 574.0761107999999 480.36151119999994 C 577.0279540999999 478.08282469999995 580.3510742 475.70800779999996 584.0467528999999 473.33782959999996 L 579.4372557999999 470.1251526 L 563.4609373999999 467.3612976 L 560.8319091 469.9229126 L 561.8063354 475.769104 C 565.1925047999999 474.244812 568.4190063 472.95101930000004 571.4235229 471.8580933 C 568.2881469 473.5837098 565.1527099 475.3093567 562.0172729 477.0349427 L 562.0453491 477.2032471 C 564.4364624 478.271637 566.8276367 479.3400574 569.218811 480.4084168 C 567.6365966 483.0251465 566.0543213 485.6418458 564.4721069 488.2585755 C 578.0889892 488.5281983 591.7059935999999 488.7978516 605.3228759 489.0674744 L 605.3228759 487.9889222 L 601.5478515 486.7755128 L 593.1889648 479.4277954 z" stroke-linecap="round" />
</g>
		<g transform="matrix(1.0457585285304705 0 0 1.0457585285304705 0.4410516398192499 73.501062203407)"  >
<path style="stroke: none; stroke-width: 1; stroke-dasharray: none; stroke-linecap: butt; stroke-dashoffset: 0; stroke-linejoin: miter; stroke-miterlimit: 4; fill: rgb(68,228,152); fill-rule: nonzero; opacity: 1;"  paint-order="stroke"  transform=" translate(-517.8581542499999, -578.46316525)" d="M 538.3117065 613.3707275 L 579.7672729 561.623291 L 535.5574951 597.0404053 L 548.961914 565.0617675999999 L 521.6405029 603.5859374999999 L 529.7320556 588.1849364999999 L 517.8707274999999 535.4459228 L 505.38537589999993 588.0407104 L 511.3769835999999 599.7805175 L 486.7543944999999 565.0617675 L 500.1587828999999 597.0403441999999 L 455.9490355999999 561.6232909999999 L 497.7138060999999 613.7565917999999 L 485.7329100999999 607.4619750999999 L 466.9355162999999 611.6896361999999 C 477.3502501999999 616.0191649999999 491.4162901999999 620.3002318999999 508.2777708999999 621.4804076999999 C 508.1831053999999 620.9498290999999 508.1253050999999 620.4064330999998 508.1253050999999 619.8486327999999 C 508.1253050999999 614.7424927 512.2645872999999 610.6031493999999 517.3707274999999 610.6031493999999 C 522.4768677 610.6031493999999 526.6161499 614.7424926999998 526.6161499 619.8486327999999 C 526.6161499 620.4052733999999 526.5584716999999 620.9475097999999 526.4641723999999 621.4769896999999 C 542.4738769999999 620.3494261999999 556.1408081 616.4100340999998 566.8621827 612.0411986999999 L 549.1535034999999 607.8373412999999 L 538.3117065 613.3707275 z M 467.9065247 573.8024902 C 473.27716069999997 579.0198363999999 479.01248169999997 585.1303710999999 484.79287719999996 592.2055664 C 490.66564939999995 599.3938598999999 495.57360839999996 606.3401488999999 499.6569214 612.7321167 L 467.9065247 573.8024902 z M 492.1743164 575.1170044 C 493.9087219 577.8727417 495.7567444 581.2299805 497.4323425 585.1780396 C 499.2190551 589.3877564000001 500.3901062 593.2805787 501.1736145 596.6041260000001 C 498.1738586 589.4417725 495.1740723 582.2793579 492.1743164 575.1170044 z M 514.925354 567.7355347 C 513.1740112 575.4486695 510.6983643 581.8646241 508.38653559999995 586.8127442 L 517.2705688 546.6361085 C 517.2808838 552.3132935 516.7831421 559.553894 514.925354 567.7355347 z M 523.8235474 602.7890625 C 530.0703125 593.9133301 536.3169556 585.0375977 542.5636597 576.1618652 C 540.5462036 580.1375122 538.0265503 584.5241699 534.8789063 589.1047363 C 531.1412354 594.5438232 527.3244019 599.0828247 523.8235474 602.7890625 z M 569.932373 571.0386963 C 565.0530395 576.118042 559.2618408 581.5631103999999 552.4730224 587.0149536 C 546.9663696 591.4371948 541.6235961 595.2052002 536.6315917 598.4073486 C 547.7318115 589.2844849 558.8320923 580.1615601 569.932373 571.0386963 z" stroke-linecap="round" />
</g>
		<g transform="matrix(1.0457585285304705 0 0 1.0457585285304705 -29.39925683183202 -20.806810206446983)"  >
<path style="stroke: none; stroke-width: 1; stroke-dasharray: none; stroke-linecap: butt; stroke-dashoffset: 0; stroke-linejoin: miter; stroke-miterlimit: 4; fill: rgb(23,107,135); fill-rule: nonzero; opacity: 1;"  paint-order="stroke"  transform=" translate(-489.3235474, -488.2818568150804)" d="M 431.1066895 426.0910645 C 441.0881958 420.5975953 451.0697632 415.1041871 461.0512696 409.6107789 C 454.8454591 411.86810310000004 447.70843510000003 414.9606935 440.1246339 419.239441 C 436.9422609 421.0349122 433.9890138 422.8675538 431.25408949999996 424.6915894 L 431.94299329999996 417.3427124 L 428.97692879999994 412.7587891 L 434.63940439999993 404.6694947 L 434.87939459999996 402.74969489999995 L 481.80926519999997 376.92138679999994 C 470.9713746 381.8526001999999 459.532837 387.51306159999996 447.6678467 394.0186157999999 C 443.3442383 396.38928229999993 439.1530762 398.77307139999994 435.0781861 401.1595459999999 L 435.987671 393.8837891999999 L 443.5376588 387.4124146999999 L 445.99389659999997 381.7499390999999 L 445.99389659999997 372.6378785999999 C 454.86627209999995 368.0355225999999 486.1065675 352.90014669999994 527.2313234 355.3496705999999 C 525.6598511999999 356.1574098999999 524.0687257 357.00469989999993 522.4519654999999 357.9168702999999 C 515.9358521999999 361.5932618999999 510.3647462999999 365.4260865999999 505.7094727999999 369.0197755999999 C 513.8652344999999 364.5311280999999 522.0211182999999 360.0425416999999 530.1768799999999 355.5538942999999 C 538.3703003999999 356.2041628999999 546.9335938999999 357.55877709999993 555.7761231999999 359.8414919999999 C 557.4576417999999 360.2755739999999 559.1046144 360.7407839999999 560.7339478999999 361.2211916999999 C 554.3577881999998 364.3676760999999 547.8217164999999 367.75207549999993 541.1444092999999 371.4132692999999 C 536.6981812999999 373.8511354999999 532.3890381999998 376.3029176999999 528.2058106999999 378.7572023999999 C 498.0509034999999 386.7579958999999 472.30383319999993 405.57836939999993 455.3759766999999 430.8164064999999 L 449.2001343999999 435.4086916999999 L 445.9938965999999 433.2515871999999 L 439.22332779999994 439.9926149999999 L 428.97692889999996 435.4086916999999 L 431.1066895 426.0910645 z M 604.4074707 382.1956787 C 600.1529541 379.2461548 595.5131835999999 376.3340454 590.4650879 373.5735474 L 584.6731566999999 376.7611695 C 591.4570923 378.0509644 598.0526733 379.8721924 604.4074707 382.1956787 z M 560.8319092 374.5150757 C 568.2237549 374.5150757 575.4655762 375.1542359 582.5111084 376.36724860000004 C 584.6199341 375.1566773 586.7501831 373.94708260000004 588.9224854 372.74084480000005 C 580.9333497 368.4904786000001 571.9700928 364.64410410000005 562.0247193 361.61438000000004 L 533.0109864 377.58239760000004 C 541.9650879 375.5792847 551.2736816 374.5150757 560.8319092 374.5150757 z M 406.4633789 425.9371338 C 401.41156010000003 428.7174683 396.3596802 431.4978027 391.3078003 434.2781372 C 395.9630737 430.6844482 401.5341797 426.8516235 408.05035399999997 423.1752319 C 408.55444339999997 422.8908081 409.0509644 422.62524410000003 409.5509644 422.3511963 L 407.8073731 405.29980470000004 L 388.5306397 424.35339360000006 L 374.2396241 455.09259040000006 L 380.7110596 453.74438480000003 L 384.7556763 446.7337036 L 388.5306397 446.7337036 L 397.6984864 443.4979248 L 402.8216553 430.01586910000003 L 406.4633789 425.9371338 z M 435.5166016 481.3825073 C 431.5153809 483.58459469999997 427.5140992 485.78674309999997 423.5128785 487.9888916 L 434.6444093 487.9888916 C 434.8778076 485.7689209 435.1702881 483.5668945 435.5166016 481.3825073 z M 435.8067627 479.6313477 C 437.04052729999995 472.4989624 438.87133789999996 465.5721436 441.2428589 458.9007569 L 409.5627442 476.33624269999996 C 419.4457398 469.8719483 430.2696534 463.28991699999995 442.0125733 456.79364019999997 C 442.0743409 456.6293336 442.1372071 456.46563729999997 442.199585 456.3016358 L 441.0434571 455.36224369999996 L 438.8862916 448.8908082 L 431.87561039999997 446.7337037 L 422.16845709999996 451.31762699999996 C 422.16845709999996 451.31762699999996 412.46148689999995 447.27294929999994 412.46136479999996 447.27294929999994 C 411.39123539999997 447.70440679999996 410.1779175 448.9906616999999 409.63012699999996 452.8005981999999 C 409.1271973 454.9951782999999 408.6243287 457.1896362999999 408.12139899999994 459.3841552999999 C 411.21130379999994 458.0167846999999 414.1676635999999 456.8345336999999 416.93109139999996 455.8294067999999 C 413.8814088 457.5078125999999 410.83178719999995 459.1861572999999 407.78210459999997 460.8645629999999 C 407.6566163 461.4122924999999 407.53106699999995 461.9600219999999 407.4055787 462.50769039999994 C 405.92254649999995 466.14788819999995 404.43951419999996 469.78808589999994 402.956482 473.42828369999995 C 403.4283448 475.76513669999997 403.9002686 478.1020508 404.3721314 480.4389649 L 400.3274537 487.98889169999995 L 420.64459239999996 487.98889169999995 C 422.62188729999997 486.73321539999995 424.69531259999997 485.47991949999994 426.88488779999994 484.24456799999996 C 429.9439087 482.5186768 432.9249268 480.9942627 435.8067627 479.6313477 z M 517.8707275 535.4459229 L 505.38537590000004 588.0407105 L 511.376953 599.7805176 L 486.7543944 565.0617676 L 500.1587523 597.0403443 L 455.9490355 561.6232911 L 497.713806 613.7565919 L 485.73291 607.4619752 L 466.93554670000003 611.6896363 C 477.35021960000006 616.0191651 491.41625960000005 620.3002319999999 508.27777080000004 621.4803466999999 C 508.1831053 620.9498290999999 508.125305 620.4064331 508.125305 619.8486327999999 C 508.125305 614.7424927 512.2645872 610.6031493999999 517.3707274000001 610.6031493999999 C 517.5395506000001 610.6031493999999 517.7041625 610.6195067999998 517.8707274000001 610.6284179999999 L 517.8707274000001 535.4459229 z M 467.9064941 573.8024902 C 473.2771606 579.0198363999999 479.01245109999996 585.1303710999999 484.79284659999996 592.2055664 C 490.6656493 599.3938598999999 495.57360829999993 606.3401488999999 499.65692129999996 612.7320556999999 L 467.9064941 573.8024902 z M 492.1743164 575.1170044 C 493.9086914 577.8727417 495.7567139 581.2299194000001 497.432312 585.1780396 C 499.2190552 589.3877564000001 500.3900757 593.2805176 501.173584 596.6041260000001 C 498.1738281 589.4417725 495.1740723 582.2793579 492.1743164 575.1170044 z M 514.925354 567.7355347 C 513.1739501999999 575.4486695 510.6983643 581.8646241 508.38653559999995 586.8127442 L 517.2705688 546.6361085 C 517.2808838 552.3132935 516.7831421 559.553894 514.925354 567.7355347 z" stroke-linecap="round" />
</g>
		<g transform="matrix(1.0457585285304705 0 0 1.0457585285304705 -1.7053026e-13 107.99344516254541)"  >
<path style="stroke: none; stroke-width: 1; stroke-dasharray: none; stroke-linecap: butt; stroke-dashoffset: 0; stroke-linejoin: miter; stroke-miterlimit: 4; fill: rgb(18,86,109); fill-rule: nonzero; opacity: 1;"  paint-order="stroke"  transform=" translate(-517.4364013999999, -611.446289)" d="M 664.977417 558.7516479 C 643.9240112 620.0020141 585.7403565 664.1409301 517.4364013999999 664.1409301 C 449.13244629999986 664.1409301 390.9488220999999 620.0020141 369.8953857999999 558.7516479 L 375.7749939999999 558.7516479 C 396.5924988999999 616.8877563 452.23144539999987 658.5964355 517.4364014999999 658.5964355 C 582.6416626999999 658.5964355 638.2803955999999 616.8877563 659.0979004999999 558.7516479 L 664.977417 558.7516479 z M 616.9107666 558.7516479 C 598.4355469 594.9441528 560.7833862 619.7847899999999 517.4364014 619.7847899999999 C 474.08972170000004 619.7847899999999 436.4374695 594.9441528 417.9620972 558.7516479 L 413.5391541 558.7516479 C 432.3297425 597.1986694 471.8390809 623.7451781999999 517.4364014 623.7451781999999 C 563.0337219 623.7451781999999 602.5430909 597.1986694 621.3336792 558.7516479 L 616.9107666 558.7516479 z" stroke-linecap="round" />
</g>
		<g transform="matrix(1.0457585285304705 0 0 1.0457585285304705 -5.684342e-14 -54.20436311361715)"  >
<path style="stroke: none; stroke-width: 1; stroke-dasharray: none; stroke-linecap: butt; stroke-dashoffset: 0; stroke-linejoin: miter; stroke-miterlimit: 4; fill: rgb(68,228,152); fill-rule: nonzero; opacity: 1;"  paint-order="stroke"  transform=" translate(-517.4364014, -456.3456574)" d="M 325.1141968 554.7721558 L 500.65264890000003 554.7721558 L 500.65264890000003 560.4757691 L 325.1141968 560.4757691 L 325.1141968 554.7721558 z M 534.6583252 560.475769 L 709.758606 560.475769 L 709.758606 554.7721557 L 534.6583252 554.7721557 L 534.6583252 560.475769 z M 709.758606 484.9816895 L 709.758606 490.6853028 L 325.1141968 490.6853028 L 325.1141968 484.9816895 L 363.2088013 484.9816895 C 374.44677740000003 409.946991 439.3205262 352.2155457 517.4364014 352.2155457 C 595.5522766 352.2155457 660.4260254000001 409.946991 671.6640015 484.9816895 L 709.758606 484.9816895 z M 368.8213196 484.9816895 L 666.0515137 484.9816895 C 654.8625489 413.01715090000005 592.4887696 357.7600403 517.4364014 357.7600403 C 442.3844299 357.7600403 380.010376 413.0171509 368.8213196 484.9816895 z" stroke-linecap="round" />
</g>
		<g transform="matrix(1.0457585285304705 0 0 1.0457585285304705 -5.684342e-14 35.553188959423835)"  >
<path style="stroke: none; stroke-width: 1; stroke-dasharray: none; stroke-linecap: butt; stroke-dashoffset: 0; stroke-linejoin: miter; stroke-miterlimit: 4; fill: rgb(23,107,135); fill-rule: nonzero; opacity: 1;"  paint-order="stroke"  transform=" translate(-517.4364014, -542.1757507)" d="M 500.6526489 543.5217285 L 325.1141968 543.5217285 L 325.1141968 540.8297729 L 500.65264890000003 540.8297729 L 500.65264890000003 543.5217285 z M 709.758606 540.8297729 L 534.6583252 540.8297729 L 534.6583252 543.5217285 L 709.758606 543.5217285 L 709.758606 540.8297729 z" stroke-linecap="round" />
</g>
</g>
</g>
<g transform="matrix(1.9211538461538462 0 0 1.9211538461538462 640.1867077213162 542.0592081717151)" id="text-logo"  >
<g style=""  paint-order="stroke"   >
		<g transform="matrix(1 0 0 1 0 0)" id="text-logo-path-0"  >
<path style="stroke: none; stroke-width: 0; stroke-dasharray: none; stroke-linecap: butt; stroke-dashoffset: 0; stroke-linejoin: miter; stroke-miterlimit: 4; fill: rgb(66,230,149); fill-rule: nonzero; opacity: 1;"  paint-order="stroke"  transform=" translate(-259.485, 10.465)" d="M 21.11 -2.99 L 22.49 0 L 28.77 0 L 19.2 -20.93 L 9.63 -20.93 L 0.06 0 L 6.34 0 L 7.72 -2.99 Z M 9.75 -7.48 L 13.85 -16.45 L 14.98 -16.45 L 19.08 -7.48 Z M 43.3 -20.93 L 35.52 -20.93 L 35.52 0 L 41.51 0 L 41.51 -14.68 L 53.47 0 L 59.45 0 L 59.45 -20.93 L 53.47 -20.93 L 53.47 -8.4 Z M 79.09 -20.93 L 67.94 -20.93 L 67.94 0 L 79.09 0 C 87.41 0 91.59 -3.2 91.59 -10.5 C 91.59 -17.55 87.8 -20.93 79.09 -20.93 Z M 73.92 -5.08 L 73.92 -15.85 L 79.99 -15.85 C 84.12 -15.85 85.61 -14.65 85.61 -10.5 C 85.61 -6.4 84.33 -5.08 79.99 -5.08 Z M 119.67 -20.93 L 99.31 -20.93 L 99.31 0 L 119.67 0 L 119.67 -5.08 L 105.29 -5.08 L 105.29 -8.37 L 118.48 -8.37 L 118.48 -12.86 L 105.29 -12.86 L 105.29 -15.85 L 119.67 -15.85 Z M 138.81 -5.98 L 143 0 L 149.87 0 L 145.18 -6.7 C 147.93 -7.74 149.4 -10.02 149.4 -13.49 C 149.4 -18.3 146.62 -20.93 140.78 -20.93 L 127.75 -20.93 L 127.75 0 L 133.73 0 L 133.73 -5.98 Z M 133.73 -11.06 L 133.73 -15.85 L 140.78 -15.85 C 142.97 -15.85 143.42 -15.1 143.42 -13.49 C 143.42 -11.84 143.06 -11.06 140.78 -11.06 Z M 156.87 -15.22 C 156.87 -5.32 175.41 -10.2 175.41 -6.91 C 175.41 -6.1 174.4 -4.78 168.92 -4.78 C 165.04 -4.78 163.27 -5.32 162.67 -7.63 L 156.57 -7.63 C 157.32 -2.09 161 0.3 168.92 0.3 C 177.86 0.3 181.39 -2.03 181.39 -6.73 C 181.39 -15.97 162.85 -12.02 162.85 -14.77 C 162.85 -15.4 163.57 -16.3 169.04 -16.3 C 172.93 -16.3 174.1 -16.06 174.69 -13.76 L 180.79 -13.76 C 180.05 -19.29 176.97 -21.38 169.04 -21.38 C 160.1 -21.38 156.87 -19.05 156.87 -15.22 Z M 188.63 -15.22 C 188.63 -5.32 207.17 -10.2 207.17 -6.91 C 207.17 -6.1 206.15 -4.78 200.68 -4.78 C 196.79 -4.78 195.03 -5.32 194.43 -7.63 L 188.33 -7.63 C 189.08 -2.09 192.76 0.3 200.68 0.3 C 209.62 0.3 213.15 -2.03 213.15 -6.73 C 213.15 -15.97 194.61 -12.02 194.61 -14.77 C 194.61 -15.4 195.33 -16.3 200.8 -16.3 C 204.69 -16.3 205.85 -16.06 206.45 -13.76 L 212.55 -13.76 C 211.8 -19.29 208.72 -21.38 200.8 -21.38 C 191.86 -21.38 188.63 -19.05 188.63 -15.22 Z M 232.62 0.45 C 241.26 0.45 245.12 -3.2 245.12 -10.5 C 245.12 -17.55 241.62 -21.38 232.62 -21.38 C 223.68 -21.38 220.15 -17.76 220.15 -10.5 C 220.15 -3.38 223.32 0.45 232.62 0.45 Z M 226.13 -10.5 C 226.13 -14.35 227.14 -16.3 232.62 -16.3 C 237.64 -16.3 239.14 -14.41 239.14 -10.5 C 239.14 -6.58 237.85 -4.63 232.62 -4.63 C 227.26 -4.63 226.13 -6.52 226.13 -10.5 Z M 260.64 -20.93 L 252.86 -20.93 L 252.86 0 L 258.84 0 L 258.84 -14.68 L 270.8 0 L 276.78 0 L 276.78 -20.93 L 270.8 -20.93 L 270.8 -8.4 Z M 316.41 -20.93 L 303.76 -20.93 L 303.76 0 L 318.2 0 C 324.12 0 326.9 -1.58 326.9 -6.25 C 326.9 -8.73 325.68 -10.17 323.37 -10.94 C 324.51 -11.72 325.11 -12.95 325.11 -14.8 C 325.11 -19.26 322.62 -20.93 316.41 -20.93 Z M 309.74 -4.49 L 309.74 -8.67 L 319.19 -8.67 C 320.47 -8.67 320.92 -7.83 320.92 -6.61 C 320.92 -5.38 320.56 -4.49 319.19 -4.49 Z M 309.74 -12.56 L 309.74 -16.45 L 317.42 -16.45 C 318.68 -16.45 319.13 -15.76 319.13 -14.5 C 319.13 -13.31 318.77 -12.56 317.42 -12.56 Z M 353.84 -2.99 L 355.22 0 L 361.5 0 L 351.93 -20.93 L 342.36 -20.93 L 332.79 0 L 339.07 0 L 340.45 -2.99 Z M 342.48 -7.48 L 346.58 -16.45 L 347.71 -16.45 L 351.81 -7.48 Z M 379.32 -5.98 L 383.51 0 L 390.39 0 L 385.69 -6.7 C 388.44 -7.74 389.91 -10.02 389.91 -13.49 C 389.91 -18.3 387.13 -20.93 381.29 -20.93 L 368.26 -20.93 L 368.26 0 L 374.24 0 L 374.24 -5.98 Z M 374.24 -11.06 L 374.24 -15.85 L 381.29 -15.85 C 383.48 -15.85 383.93 -15.1 383.93 -13.49 C 383.93 -11.84 383.57 -11.06 381.29 -11.06 Z M 410.54 -20.93 L 397.89 -20.93 L 397.89 0 L 412.33 0 C 418.26 0 421.04 -1.58 421.04 -6.25 C 421.04 -8.73 419.81 -10.17 417.51 -10.94 C 418.64 -11.72 419.24 -12.95 419.24 -14.8 C 419.24 -19.26 416.76 -20.93 410.54 -20.93 Z M 403.87 -4.49 L 403.87 -8.67 L 413.32 -8.67 C 414.61 -8.67 415.06 -7.83 415.06 -6.61 C 415.06 -5.38 414.7 -4.49 413.32 -4.49 Z M 403.87 -12.56 L 403.87 -16.45 L 411.56 -16.45 C 412.81 -16.45 413.26 -15.76 413.26 -14.5 C 413.26 -13.31 412.9 -12.56 411.56 -12.56 Z M 440.35 0.45 C 449 0.45 452.85 -3.2 452.85 -10.5 C 452.85 -17.55 449.35 -21.38 440.35 -21.38 C 431.41 -21.38 427.88 -17.76 427.88 -10.5 C 427.88 -3.38 431.05 0.45 440.35 0.45 Z M 433.86 -10.5 C 433.86 -14.35 434.88 -16.3 440.35 -16.3 C 445.38 -16.3 446.87 -14.41 446.87 -10.5 C 446.87 -6.58 445.59 -4.63 440.35 -4.63 C 435 -4.63 433.86 -6.52 433.86 -10.5 Z M 460.09 -15.22 C 460.09 -5.32 478.63 -10.2 478.63 -6.91 C 478.63 -6.1 477.61 -4.78 472.14 -4.78 C 468.25 -4.78 466.49 -5.32 465.89 -7.63 L 459.79 -7.63 C 460.54 -2.09 464.22 0.3 472.14 0.3 C 481.08 0.3 484.61 -2.03 484.61 -6.73 C 484.61 -15.97 466.07 -12.02 466.07 -14.77 C 466.07 -15.4 466.79 -16.3 472.26 -16.3 C 476.15 -16.3 477.31 -16.06 477.91 -13.76 L 484.01 -13.76 C 483.26 -19.29 480.18 -21.38 472.26 -21.38 C 463.32 -21.38 460.09 -19.05 460.09 -15.22 Z M 511.25 -2.99 L 512.63 0 L 518.91 0 L 509.34 -20.93 L 499.77 -20.93 L 490.2 0 L 496.48 0 L 497.86 -2.99 Z M 499.89 -7.48 L 503.99 -16.45 L 505.12 -16.45 L 509.22 -7.48 Z" stroke-linecap="round" />
</g>
</g>
</g>
<g transform="matrix(0.9304763429457621 1.6807872785721572 -1.6807872785721572 0.9304763429457621 353.759521293163 694.9024701885103)" id="tagline-040ed1a0-0bc3-4be8-bb96-633622a6b0cf-logo-0"  >
<g style=""  paint-order="stroke"   >
		<g transform="matrix(1 0 0 1 0 0)" id="tagline-040ed1a0-0bc3-4be8-bb96-633622a6b0cf-logo-0-path-0"  >
<path style="stroke: none; stroke-width: 0; stroke-dasharray: none; stroke-linecap: butt; stroke-dashoffset: 0; stroke-linejoin: miter; stroke-miterlimit: 4; fill: rgb(66,230,149); fill-rule: nonzero; opacity: 1;"  paint-order="stroke"  transform=" translate(-11.170000000000002, 9.625)" d="M 18.43 -2.06 L 18.76 0 L 21.51 0 L 21.51 -10.18 L 11.39 -10.18 L 11.39 -7.15 L 17.19 -7.15 C 16.36 -4.79 14.3 -3.3 11.28 -3.3 C 7.32 -3.3 4.95 -5.89 4.95 -9.63 C 4.95 -13.37 7.32 -15.95 11.28 -15.95 C 14.33 -15.95 16.45 -14.41 17.24 -11.96 L 21.51 -11.96 C 20.54 -16.53 16.8 -19.53 11.28 -19.53 C 4.9 -19.53 0.83 -15.46 0.83 -9.63 C 0.83 -3.8 4.9 0.28 11.28 0.28 C 14.19 0.28 16.64 -0.58 18.43 -2.06 Z" stroke-linecap="round" />
</g>
</g>
</g>
<g transform="matrix(1.184659181321372 1.5124201548189884 -1.5124201548189886 1.184659181321372 382.63832513981555 738.57407005362)" id="tagline-040ed1a0-0bc3-4be8-bb96-633622a6b0cf-logo-1"  >
<g style=""  paint-order="stroke"   >
		<g transform="matrix(1 0 0 1 0 0)" id="tagline-040ed1a0-0bc3-4be8-bb96-633622a6b0cf-logo-1-path-0"  >
<path style="stroke: none; stroke-width: 0; stroke-dasharray: none; stroke-linecap: butt; stroke-dashoffset: 0; stroke-linejoin: miter; stroke-miterlimit: 4; fill: rgb(66,230,149); fill-rule: nonzero; opacity: 1;"  paint-order="stroke"  transform=" translate(-3.7150000000000003, 9.625)" d="M 5.78 -19.25 L 1.65 -19.25 L 1.65 0 L 5.78 0 Z" stroke-linecap="round" />
</g>
</g>
</g>
<g transform="matrix(1.397993747677331 1.3177426084204782 -1.3177426084204784 1.3979937476773312 415.7129194031546 774.8226989700486)" id="tagline-040ed1a0-0bc3-4be8-bb96-633622a6b0cf-logo-2"  >
<g style=""  paint-order="stroke"   >
		<g transform="matrix(0.9999999999999999 0 0 1 0 0)" id="tagline-040ed1a0-0bc3-4be8-bb96-633622a6b0cf-logo-2-path-0"  >
<path style="stroke: none; stroke-width: 0; stroke-dasharray: none; stroke-linecap: butt; stroke-dashoffset: 0; stroke-linejoin: miter; stroke-miterlimit: 4; fill: rgb(66,230,149); fill-rule: nonzero; opacity: 1;"  paint-order="stroke"  transform=" translate(-10.065, 9.625)" d="M 4.98 -6.08 L 0.85 -6.08 C 1.4 -1.76 4.1 0.28 10.04 0.28 C 16.09 0.28 19.28 -1.82 19.28 -5.53 C 19.28 -9.85 14.44 -10.78 10.48 -11.47 C 7.76 -11.96 5.42 -12.29 5.42 -13.72 C 5.42 -15.15 7.04 -15.95 9.71 -15.95 C 12.65 -15.95 14.25 -14.88 14.55 -13.23 L 18.67 -13.23 C 18.32 -17.85 14.85 -19.53 9.79 -19.53 C 4.37 -19.53 1.29 -17.46 1.29 -13.92 C 1.29 -9.24 6.24 -8.44 10.23 -7.84 C 12.9 -7.43 15.15 -7.07 15.15 -5.64 C 15.15 -4.18 13.04 -3.3 10.04 -3.3 C 6.85 -3.33 5.14 -4.35 4.98 -6.08 Z" stroke-linecap="round" />
</g>
</g>
</g>
<g transform="matrix(1.5917127699617843 1.075770681201296 -1.0757706812012962 1.5917127699617846 455.19915665144083 828.9886545803927)" id="tagline-040ed1a0-0bc3-4be8-bb96-633622a6b0cf-logo-3"  >
<g style=""  paint-order="stroke"   >
		<g transform="matrix(1 0 0 1 0 0)" id="tagline-040ed1a0-0bc3-4be8-bb96-633622a6b0cf-logo-3-path-0"  >
<path style="stroke: none; stroke-width: 0; stroke-dasharray: none; stroke-linecap: butt; stroke-dashoffset: 0; stroke-linejoin: miter; stroke-miterlimit: 4; fill: rgb(66,230,149); fill-rule: nonzero; opacity: 1;"  paint-order="stroke"  transform=" translate(0, 0)" d="" stroke-linecap="round" />
</g>
</g>
</g>
<g transform="matrix(1.7464808979900037 0.8003977595844122 -0.8003977595844122 1.7464808979900037 504.48399636637726 834.4923715210452)" id="tagline-040ed1a0-0bc3-4be8-bb96-633622a6b0cf-logo-4"  >
<g style=""  paint-order="stroke"   >
		<g transform="matrix(1 0 0 1 0 0)" id="tagline-040ed1a0-0bc3-4be8-bb96-633622a6b0cf-logo-4-path-0"  >
<path style="stroke: none; stroke-width: 0; stroke-dasharray: none; stroke-linecap: butt; stroke-dashoffset: 0; stroke-linejoin: miter; stroke-miterlimit: 4; fill: rgb(66,230,149); fill-rule: nonzero; opacity: 1;"  paint-order="stroke"  transform=" translate(-10.975000000000001, 9.625)" d="M 9.85 -19.25 L 1.65 -19.25 L 1.65 0 L 9.85 0 C 16.25 0 20.3 -3.77 20.3 -9.63 C 20.3 -15.48 16.25 -19.25 9.85 -19.25 Z M 5.78 -3.58 L 5.78 -15.68 L 9.85 -15.68 C 13.81 -15.68 16.17 -13.37 16.17 -9.63 C 16.17 -5.89 13.81 -3.58 9.85 -3.58 Z" stroke-linecap="round" />
</g>
</g>
</g>
<g transform="matrix(1.8659172773163522 0.45736726468347905 -0.45736726468347905 1.8659172773163522 562.775084947694 854.6544357085008)" id="tagline-040ed1a0-0bc3-4be8-bb96-633622a6b0cf-logo-5"  >
<g style=""  paint-order="stroke"   >
		<g transform="matrix(1 0 0 1 0 0)" id="tagline-040ed1a0-0bc3-4be8-bb96-633622a6b0cf-logo-5-path-0"  >
<path style="stroke: none; stroke-width: 0; stroke-dasharray: none; stroke-linecap: butt; stroke-dashoffset: 0; stroke-linejoin: miter; stroke-miterlimit: 4; fill: rgb(66,230,149); fill-rule: nonzero; opacity: 1;"  paint-order="stroke"  transform=" translate(-9.6, 9.625)" d="M 17.55 -19.25 L 1.65 -19.25 L 1.65 0 L 17.55 0 L 17.55 -3.58 L 5.78 -3.58 L 5.78 -7.84 L 16.17 -7.84 L 16.17 -11.41 L 5.78 -11.41 L 5.78 -15.68 L 17.55 -15.68 Z" stroke-linecap="round" />
</g>
</g>
</g>
<g transform="matrix(1.9186098444379482 0.09883504144537308 -0.0988350414453731 1.9186098444379485 623.1707069977418 863.4752424718034)" id="tagline-040ed1a0-0bc3-4be8-bb96-633622a6b0cf-logo-6"  >
<g style=""  paint-order="stroke"   >
		<g transform="matrix(1 0 0 1 0 0)" id="tagline-040ed1a0-0bc3-4be8-bb96-633622a6b0cf-logo-6-path-0"  >
<path style="stroke: none; stroke-width: 0; stroke-dasharray: none; stroke-linecap: butt; stroke-dashoffset: 0; stroke-linejoin: miter; stroke-miterlimit: 4; fill: rgb(66,230,149); fill-rule: nonzero; opacity: 1;"  paint-order="stroke"  transform=" translate(-10.510000000000002, 9.625)" d="M 4.46 -19.25 L 0.06 -19.25 L 7.76 0 L 13.26 0 L 20.96 -19.25 L 16.56 -19.25 L 10.51 -4.13 Z" stroke-linecap="round" />
</g>
</g>
</g>
<g transform="matrix(1.9030372047340818 -0.26321378761305164 0.26321378761305164 1.9030372047340818 685.414361107253 860.7416940437785)" id="tagline-040ed1a0-0bc3-4be8-bb96-633622a6b0cf-logo-7"  >
<g style=""  paint-order="stroke"   >
		<g transform="matrix(0.9999999999999999 0 0 1 0 0)" id="tagline-040ed1a0-0bc3-4be8-bb96-633622a6b0cf-logo-7-path-0"  >
<path style="stroke: none; stroke-width: 0; stroke-dasharray: none; stroke-linecap: butt; stroke-dashoffset: 0; stroke-linejoin: miter; stroke-miterlimit: 4; fill: rgb(66,230,149); fill-rule: nonzero; opacity: 1;"  paint-order="stroke"  transform=" translate(-9.6, 9.625)" d="M 17.55 -19.25 L 1.65 -19.25 L 1.65 0 L 17.55 0 L 17.55 -3.58 L 5.78 -3.58 L 5.78 -7.84 L 16.17 -7.84 L 16.17 -11.41 L 5.78 -11.41 L 5.78 -15.68 L 17.55 -15.68 Z" stroke-linecap="round" />
</g>
</g>
</g>
<g transform="matrix(1.8261813456976728 -0.596568347482125 0.596568347482125 1.826181345697673 742.8726781478146 847.308792447423)" id="tagline-040ed1a0-0bc3-4be8-bb96-633622a6b0cf-logo-8"  >
<g style=""  paint-order="stroke"   >
		<g transform="matrix(1 0 0 1 0 0)" id="tagline-040ed1a0-0bc3-4be8-bb96-633622a6b0cf-logo-8-path-0"  >
<path style="stroke: none; stroke-width: 0; stroke-dasharray: none; stroke-linecap: butt; stroke-dashoffset: 0; stroke-linejoin: miter; stroke-miterlimit: 4; fill: rgb(66,230,149); fill-rule: nonzero; opacity: 1;"  paint-order="stroke"  transform=" translate(-9.6, 9.625)" d="M 5.78 -19.25 L 1.65 -19.25 L 1.65 0 L 17.55 0 L 17.55 -3.58 L 5.78 -3.58 Z" stroke-linecap="round" />
</g>
</g>
</g>
<g transform="matrix(1.682485211775638 -0.9274026163150515 0.9274026163150515 1.682485211775638 797.8398517694205 823.2931161912168)" id="tagline-040ed1a0-0bc3-4be8-bb96-633622a6b0cf-logo-9"  >
<g style=""  paint-order="stroke"   >
		<g transform="matrix(1 0 0 1 0 0)" id="tagline-040ed1a0-0bc3-4be8-bb96-633622a6b0cf-logo-9-path-0"  >
<path style="stroke: none; stroke-width: 0; stroke-dasharray: none; stroke-linecap: butt; stroke-dashoffset: 0; stroke-linejoin: miter; stroke-miterlimit: 4; fill: rgb(66,230,149); fill-rule: nonzero; opacity: 1;"  paint-order="stroke"  transform=" translate(-11.280000000000001, 9.625)" d="M 11.28 0.28 C 17.68 0.28 21.73 -3.77 21.73 -9.63 C 21.73 -15.48 17.66 -19.53 11.28 -19.53 C 4.9 -19.53 0.83 -15.48 0.83 -9.63 C 0.83 -3.8 4.87 0.28 11.28 0.28 Z M 4.95 -9.63 C 4.95 -13.37 7.32 -15.95 11.28 -15.95 C 15.24 -15.95 17.6 -13.37 17.6 -9.63 C 17.6 -5.89 15.24 -3.3 11.28 -3.3 C 7.32 -3.3 4.95 -5.89 4.95 -9.63 Z" stroke-linecap="round" />
</g>
</g>
</g>
<g transform="matrix(1.467501148660829 -1.2398679281564078 1.239867928156408 1.467501148660829 851.8042684767923 786.0414112529288)" id="tagline-040ed1a0-0bc3-4be8-bb96-633622a6b0cf-logo-10"  >
<g style=""  paint-order="stroke"   >
		<g transform="matrix(1 0 0 1 0 0)" id="tagline-040ed1a0-0bc3-4be8-bb96-633622a6b0cf-logo-10-path-0"  >
<path style="stroke: none; stroke-width: 0; stroke-dasharray: none; stroke-linecap: butt; stroke-dashoffset: 0; stroke-linejoin: miter; stroke-miterlimit: 4; fill: rgb(66,230,149); fill-rule: nonzero; opacity: 1;"  paint-order="stroke"  transform=" translate(-10.435, 9.625)" d="M 12.6 -19.25 L 1.65 -19.25 L 1.65 0 L 5.78 0 L 5.78 -7.01 L 12.6 -7.01 C 16.67 -7.01 19.22 -9.43 19.22 -13.15 C 19.22 -16.86 16.67 -19.25 12.6 -19.25 Z M 5.78 -10.59 L 5.78 -15.68 L 12.43 -15.68 C 14.11 -15.68 15.1 -14.71 15.1 -13.15 C 15.1 -11.55 14.11 -10.59 12.43 -10.59 Z" stroke-linecap="round" />
</g>
</g>
</g>
<g transform="matrix(1.214490757965183 -1.488571227522846 1.488571227522846 1.214490757965183 893.7219038802299 743.1814980158035)" id="tagline-040ed1a0-0bc3-4be8-bb96-633622a6b0cf-logo-11"  >
<g style=""  paint-order="stroke"   >
		<g transform="matrix(1 0 0 1 0 0)" id="tagline-040ed1a0-0bc3-4be8-bb96-633622a6b0cf-logo-11-path-0"  >
<path style="stroke: none; stroke-width: 0; stroke-dasharray: none; stroke-linecap: butt; stroke-dashoffset: 0; stroke-linejoin: miter; stroke-miterlimit: 4; fill: rgb(66,230,149); fill-rule: nonzero; opacity: 1;"  paint-order="stroke"  transform=" translate(-9.6, 9.625)" d="M 17.55 -19.25 L 1.65 -19.25 L 1.65 0 L 17.55 0 L 17.55 -3.58 L 5.78 -3.58 L 5.78 -7.84 L 16.17 -7.84 L 16.17 -11.41 L 5.78 -11.41 L 5.78 -15.68 L 17.55 -15.68 Z" stroke-linecap="round" />
</g>
</g>
</g>
<g transform="matrix(0.9170811116036176 -1.6881333878966998 1.6881333878966998 0.9170811116036176 927.8037770385898 692.1110306638493)" id="tagline-040ed1a0-0bc3-4be8-bb96-633622a6b0cf-logo-12"  >
<g style=""  paint-order="stroke"   >
		<g transform="matrix(1 0 0 1 0 0)" id="tagline-040ed1a0-0bc3-4be8-bb96-633622a6b0cf-logo-12-path-0"  >
<path style="stroke: none; stroke-width: 0; stroke-dasharray: none; stroke-linecap: butt; stroke-dashoffset: 0; stroke-linejoin: miter; stroke-miterlimit: 4; fill: rgb(66,230,149); fill-rule: nonzero; opacity: 1;"  paint-order="stroke"  transform=" translate(-10.725000000000001, 9.625)" d="M 12.6 -19.25 L 1.65 -19.25 L 1.65 0 L 5.78 0 L 5.78 -7.01 L 10.7 -7.01 L 15.4 0 L 19.8 0 L 14.91 -7.32 C 17.6 -8.06 19.22 -10.2 19.22 -13.15 C 19.22 -16.86 16.67 -19.25 12.6 -19.25 Z M 5.78 -10.59 L 5.78 -15.68 L 12.43 -15.68 C 14.11 -15.68 15.1 -14.71 15.1 -13.15 C 15.1 -11.55 14.11 -10.59 12.43 -10.59 Z" stroke-linecap="round" />
</g>
</g>
</g>
</svg>